# File exported by Unity3D version 5.6.7f1
v 0.00000003 -0.29999900 0.00000000
v 11.00000000 0.00000156 -31.99999000
v -11.00000000 0.00000214 -32.00000000
v -8.99999800 -0.29999830 0.00000055
v 9.00000200 -0.29999920 0.00000136
v 11.00000000 -0.29999910 -0.00000025
v -11.00000000 -0.29999850 0.00000025
v 8.99999600 -0.30000030 32.00000000
v 10.99999000 -0.30000030 32.00000000
v -0.00000457 -0.29999970 32.00000000
v -9.00000400 -0.29999950 32.00000000
v -11.00001000 -0.29999970 32.00000000
vt 0.50000 0.50000
vt 0.00000 1.00000
vt 1.00000 1.00000
vt 0.91000 0.50000
vt 0.09000 0.50000
vt 0.00000 0.50000
vt 1.00000 0.50000
vt 0.09000 0.00000
vt 0.00000 0.00000
vt 0.50000 0.00000
vt 0.91000 0.00000
vt 1.00000 0.00000
vn 0.00000000 0.99998900 0.00468737
vn 0.00000000 0.99995610 0.00937462
vn 0.00000000 0.99995610 0.00937461
vn 0.00000000 0.99998900 0.00468737
vn 0.00000000 0.99998900 0.00468737
vn 0.00000000 0.99998900 0.00468738
vn 0.00000000 0.99998900 0.00468737
vn 0.00000000 1.00000000 0.00000000
vn 0.00000000 1.00000000 0.00000000
vn 0.00000000 1.00000000 0.00000000
vn 0.00000000 1.00000000 0.00000000
vn 0.00000000 1.00000000 0.00000000
g Plane01_0
f 1/1/1 2/2/2 3/3/3
f 3/3/3 4/4/4 1/1/1
f 1/1/1 5/5/5 2/2/2
f 2/2/2 5/5/5 6/6/6
f 7/7/7 4/4/4 3/3/3
f 5/5/5 8/8/8 6/6/6
f 6/6/6 8/8/8 9/9/9
f 10/10/10 8/8/8 5/5/5
f 10/10/10 5/5/5 1/1/1
f 1/1/1 11/11/11 10/10/10
f 4/4/4 11/11/11 1/1/1
f 12/12/12 11/11/11 4/4/4
f 12/12/12 4/4/4 7/7/7
