# File exported by Unity3D version 5.6.7f1
v 8.99987400 -0.00000119 16.00001000
v -8.99985200 -0.00000024 0.00000429
v -8.99985200 0.00000000 16.00001000
v 8.99987400 -0.00000143 0.00000429
v 8.99983300 -0.00000119 32.00000000
v -8.99988900 0.00000000 32.00000000
v -8.99990700 -0.00000024 -15.99999000
v 8.99974500 -0.00000143 -15.99999000
v -8.99996300 -0.00000286 -31.99999000
v 8.99978300 -0.00000453 -31.99999000
v 10.99997000 3.87499900 16.00000000
v 8.99996700 7.99999800 0.00000358
v 8.99996700 3.87499900 16.00001000
v 10.99997000 7.99999800 0.00000358
v 8.99996600 10.20313000 -7.99999700
v 10.99996000 12.10651000 -15.99999000
v -8.99974300 10.20313000 -7.99999700
v -11.00003000 12.10651000 -15.99999000
v -11.00003000 7.99999900 0.00000334
v -8.99974300 7.99999900 0.00000334
v -11.00003000 3.87500000 16.00000000
v -8.99974200 3.87499900 16.00001000
v 8.99996700 3.87499900 16.00001000
v 10.99997000 1.99999900 32.00000000
v 10.99997000 3.87499900 16.00000000
v 8.99996600 1.99999800 32.00000000
v 8.99996600 10.20313000 -7.99999700
v 10.99997000 7.99999800 0.00000358
v 10.99996000 12.10651000 -15.99999000
v -11.00004000 2.00000000 32.00000000
v -8.99974200 3.87499900 16.00001000
v -11.00003000 3.87500000 16.00000000
v -8.99974300 1.99999900 32.00000000
v -11.00003000 7.99999900 0.00000334
v -8.99974300 10.20313000 -7.99999700
v -11.00003000 12.10651000 -15.99999000
v -8.99974300 10.20313000 -7.99999700
v 8.99996600 0.00000048 -7.99999400
v 8.99996600 10.20313000 -7.99999700
v -8.99974300 0.00000119 -7.99999700
v 8.99996600 10.20313000 -7.99999700
v 8.99987400 -0.00000143 0.00000429
v 8.99996700 7.99999800 0.00000358
v 8.99996600 0.00000048 -7.99999400
v 8.99996700 3.87499900 16.00001000
v 8.99987400 -0.00000119 16.00001000
v 8.99983300 -0.00000119 32.00000000
v 8.99996600 1.99999800 32.00000000
v -8.99974300 7.99999900 0.00000334
v -8.99974300 0.00000119 -7.99999700
v -8.99974300 10.20313000 -7.99999700
v -8.99985200 -0.00000024 0.00000429
v -8.99974200 3.87499900 16.00001000
v -8.99985200 0.00000000 16.00001000
v -8.99988900 0.00000000 32.00000000
v -8.99974300 1.99999900 32.00000000
v -11.00003000 12.10651000 -15.99999000
v -11.00000000 -3.00000200 0.00000453
v -11.00003000 7.99999900 0.00000334
v -11.00000000 -3.00000300 -15.99999000
v -11.00003000 3.87500000 16.00000000
v -11.00000000 -3.00000200 16.00000000
v -11.00000000 -3.00000100 32.00000000
v -11.00004000 2.00000000 32.00000000
v -10.99996000 7.49999900 -31.99999000
v -10.99996000 7.50000100 -16.00000000
v -11.00000000 -3.00000400 -31.99999000
v 10.99997000 7.99999800 0.00000358
v 11.00000000 -3.00000300 -15.99999000
v 10.99996000 12.10651000 -15.99999000
v 11.00000000 -3.00000300 0.00000453
v 10.99997000 3.87499900 16.00000000
v 11.00000000 -3.00000300 16.00000000
v 11.00000000 -3.00000200 32.00000000
v 10.99997000 1.99999900 32.00000000
v 10.99999000 -3.00000400 -31.99999000
v 11.00004000 7.50000100 -15.99999000
v 11.00003000 7.49999900 -31.99999000
v 10.99996000 12.10651000 -15.99999000
v -10.99996000 7.50000100 -16.00000000
v -11.00003000 12.10651000 -15.99999000
v 11.00004000 7.50000100 -15.99999000
v 11.00004000 7.50000100 -15.99999000
v -10.99996000 7.49999900 -31.99999000
v -10.99996000 7.50000100 -16.00000000
v 11.00003000 7.49999900 -31.99999000
v 11.00003000 7.49999900 -31.99999000
v -11.00000000 -3.00000400 -31.99999000
v -10.99996000 7.49999900 -31.99999000
v 10.99999000 -3.00000400 -31.99999000
v 8.99996600 1.99999800 32.00000000
v 10.99974000 -0.00000095 32.00000000
v 10.99997000 1.99999900 32.00000000
v 8.99983300 -0.00000119 32.00000000
v -11.00004000 2.00000000 32.00000000
v -8.99988900 0.00000000 32.00000000
v -8.99974300 1.99999900 32.00000000
v -11.00025000 0.00000000 32.00000000
vt 0.00000 0.25000
vt 0.50114 0.50000
vt 0.50114 0.25000
vt 0.00000 0.50000
vt 0.00000 0.00000
vt 0.50114 0.00000
vt 0.50114 0.75000
vt 0.00001 0.75000
vt 0.50115 1.00000
vt 0.00000 1.00000
vt 0.73198 0.33100
vt 0.76518 0.66200
vt 0.76518 0.33100
vt 0.73198 0.66200
vt 0.76518 0.82750
vt 0.73198 0.99301
vt 0.96439 0.82750
vt 0.99760 0.99301
vt 0.99760 0.66200
vt 0.96439 0.66200
vt 0.99760 0.33100
vt 0.96439 0.33100
vt 0.76518 0.33100
vt 0.73198 0.00000
vt 0.73198 0.33100
vt 0.76518 0.00000
vt 0.76518 0.82750
vt 0.73198 0.66200
vt 0.73198 0.99301
vt 0.99760 0.00000
vt 0.96439 0.33100
vt 0.99760 0.33100
vt 0.96439 0.00000
vt 0.99760 0.66200
vt 0.96439 0.82750
vt 0.99760 0.99301
vt 0.95719 0.32938
vt 0.77552 0.02394
vt 0.77552 0.32938
vt 0.95719 0.02394
vt 0.56877 0.00663
vt 0.71395 0.20531
vt 0.60012 0.20531
vt 0.71395 0.00663
vt 0.65882 0.60265
vt 0.71395 0.60265
vt 0.71395 1.00000
vt 0.68549 1.00000
vt 0.60012 0.20531
vt 0.71395 0.00663
vt 0.56877 0.00663
vt 0.71395 0.20531
vt 0.65882 0.60265
vt 0.71395 0.60265
vt 0.71395 1.00000
vt 0.68549 1.00000
vt 0.65443 0.75017
vt 0.50838 0.50034
vt 0.61473 0.50034
vt 0.50838 0.75017
vt 0.57484 0.25051
vt 0.50838 0.25051
vt 0.50838 0.00068
vt 0.55672 0.00068
vt 0.60989 1.00000
vt 0.60989 0.75017
vt 0.50838 1.00000
vt 0.61473 0.50034
vt 0.50838 0.75017
vt 0.65443 0.75017
vt 0.50838 0.50034
vt 0.57484 0.25051
vt 0.50838 0.25051
vt 0.50838 0.00068
vt 0.55672 0.00068
vt 0.50838 1.00000
vt 0.60989 0.75017
vt 0.60989 1.00000
vt 0.76913 0.81633
vt 0.95547 0.74872
vt 0.95547 0.81633
vt 0.76913 0.74872
vt 0.77756 0.34377
vt 0.95538 0.54163
vt 0.95538 0.34377
vt 0.77756 0.54163
vt 0.76913 0.70979
vt 0.95547 0.55568
vt 0.95547 0.70979
vt 0.76913 0.55568
vt 0.65676 0.99269
vt 0.61898 0.91529
vt 0.61898 0.99269
vt 0.65676 0.91529
vt 0.65707 0.90392
vt 0.61929 0.82652
vt 0.61929 0.90392
vt 0.65708 0.82652
vn 0.00000000 1.00000000 0.00000000
vn 0.00000000 1.00000000 0.00000000
vn 0.00000000 1.00000000 0.00000000
vn 0.00000000 1.00000000 0.00000000
vn 0.00000000 1.00000000 0.00000000
vn 0.00000000 1.00000000 0.00000000
vn 0.00000000 1.00000000 -0.00000016
vn 0.00000000 1.00000000 -0.00000016
vn 0.00000000 1.00000000 0.00000000
vn 0.00000000 1.00000000 0.00000000
vn 0.00000037 0.96833640 0.24964910
vn 0.00000037 0.96833640 0.24964910
vn 0.00000037 0.96833640 0.24964910
vn 0.00000000 0.96833640 0.24964920
vn 0.00000000 0.96410890 0.26550680
vn 0.00000000 0.97284400 0.23146200
vn 0.00000000 0.96410890 0.26550690
vn 0.00000000 0.97284400 0.23146190
vn 0.00000000 0.96833640 0.24964910
vn -0.00000025 0.96833640 0.24964910
vn -0.00000025 0.96833640 0.24964910
vn -0.00000025 0.96833640 0.24964910
vn 0.00000000 0.99320340 0.11639110
vn 0.00000000 0.99320340 0.11639110
vn 0.00000000 0.99320340 0.11639110
vn -0.00000030 0.99320340 0.11639110
vn 0.07239264 0.96606490 0.24794730
vn 0.07239264 0.96606490 0.24794730
vn 0.07239264 0.96606490 0.24794730
vn 0.00000014 0.99320340 0.11639110
vn 0.00000014 0.99320340 0.11639110
vn 0.00000014 0.99320340 0.11639110
vn 0.00000018 0.99320340 0.11639110
vn -0.07238248 0.96606560 0.24794750
vn -0.07238248 0.96606560 0.24794750
vn -0.07238249 0.96606560 0.24794750
vn 0.00000000 0.00000028 1.00000000
vn 0.00000000 0.00000028 1.00000000
vn 0.00000000 0.00000028 1.00000000
vn -0.00000019 0.00000000 1.00000000
vn -1.00000000 0.00001156 0.00000330
vn -1.00000000 0.00001156 0.00000330
vn -1.00000000 0.00001156 0.00000330
vn -1.00000000 0.00000000 -0.00001144
vn -1.00000000 0.00002387 0.00000000
vn -1.00000000 0.00002387 0.00000000
vn -1.00000000 0.00006628 0.00000771
vn -1.00000000 0.00006628 0.00000771
vn 1.00000000 0.00000000 0.00000000
vn 1.00000000 0.00000000 0.00000000
vn 1.00000000 0.00000000 0.00000000
vn 1.00000000 -0.00001371 0.00001371
vn 1.00000000 -0.00001371 -0.00000359
vn 1.00000000 -0.00002855 0.00000000
vn 1.00000000 -0.00002855 0.00000232
vn 1.00000000 -0.00007343 -0.00000855
vn -1.00000000 -0.00000329 -0.00000091
vn -1.00000000 -0.00000329 -0.00000091
vn -1.00000000 -0.00000329 -0.00000091
vn -1.00000000 -0.00000234 0.00000000
vn -1.00000000 -0.00000527 0.00000000
vn -1.00000000 -0.00000527 0.00000000
vn -1.00000000 -0.00000782 -0.00000110
vn -1.00000000 -0.00000782 -0.00000110
vn -1.00000000 0.00000381 0.00000030
vn -1.00000000 0.00000381 0.00000030
vn -1.00000000 0.00000391 0.00000036
vn 1.00000000 0.00000240 0.00000044
vn 1.00000000 0.00000240 0.00000044
vn 1.00000000 0.00000240 0.00000044
vn 1.00000000 0.00000329 -0.00000018
vn 1.00000000 0.00000329 0.00000085
vn 1.00000000 0.00000527 0.00000000
vn 1.00000000 0.00000527 0.00000000
vn 1.00000000 0.00000725 0.00000091
vn 1.00000000 -0.00000381 -0.00000036
vn 1.00000000 -0.00000381 -0.00000036
vn 1.00000000 -0.00000381 -0.00000036
vn 0.00000000 0.00000083 -1.00000000
vn 0.00000000 0.00000083 -1.00000000
vn 0.00000000 0.00000083 -1.00000000
vn 0.00000013 0.00000041 -1.00000000
vn 0.00000000 1.00000000 -0.00000015
vn 0.00000000 1.00000000 -0.00000015
vn 0.00000000 1.00000000 -0.00000015
vn 0.00000000 1.00000000 -0.00000015
vn 0.00000026 -0.00000036 -1.00000000
vn 0.00000026 -0.00000036 -1.00000000
vn 0.00000026 -0.00000036 -1.00000000
vn 0.00000000 0.00000000 -1.00000000
vn 0.00000000 0.00000000 1.00000000
vn 0.00000000 0.00000000 1.00000000
vn 0.00000000 0.00000000 1.00000000
vn 0.00000000 0.00000000 1.00000000
vn 0.00000000 0.00000000 1.00000000
vn 0.00000000 0.00000000 1.00000000
vn 0.00000000 0.00000000 1.00000000
vn 0.00000000 0.00000000 1.00000000
vc 1.00000000 1.00000000 1.00000000 1.00000000
vc 1.00000000 1.00000000 1.00000000 1.00000000
vc 1.00000000 1.00000000 1.00000000 1.00000000
vc 1.00000000 1.00000000 1.00000000 1.00000000
vc 1.00000000 1.00000000 1.00000000 1.00000000
vc 1.00000000 1.00000000 1.00000000 1.00000000
vc 1.00000000 1.00000000 1.00000000 1.00000000
vc 1.00000000 1.00000000 1.00000000 1.00000000
vc 1.00000000 1.00000000 1.00000000 1.00000000
vc 1.00000000 1.00000000 1.00000000 1.00000000
vc 1.00000000 0.00000000 1.00000000 1.00000000
vc 1.00000000 0.00000000 1.00000000 1.00000000
vc 1.00000000 0.00000000 1.00000000 1.00000000
vc 1.00000000 0.00000000 1.00000000 1.00000000
vc 1.00000000 0.00000000 1.00000000 1.00000000
vc 1.00000000 0.00000000 1.00000000 1.00000000
vc 1.00000000 0.00000000 1.00000000 1.00000000
vc 1.00000000 0.00000000 1.00000000 1.00000000
vc 1.00000000 0.00000000 1.00000000 1.00000000
vc 1.00000000 0.00000000 1.00000000 1.00000000
vc 1.00000000 0.00000000 1.00000000 1.00000000
vc 1.00000000 0.00000000 1.00000000 1.00000000
vc 1.00000000 0.00000000 1.00000000 1.00000000
vc 1.00000000 0.00000000 1.00000000 1.00000000
vc 1.00000000 0.00000000 1.00000000 1.00000000
vc 1.00000000 0.00000000 1.00000000 1.00000000
vc 1.00000000 0.00000000 1.00000000 1.00000000
vc 1.00000000 0.00000000 1.00000000 1.00000000
vc 1.00000000 0.00000000 1.00000000 1.00000000
vc 1.00000000 0.00000000 1.00000000 1.00000000
vc 1.00000000 0.00000000 1.00000000 1.00000000
vc 1.00000000 0.00000000 1.00000000 1.00000000
vc 1.00000000 0.00000000 1.00000000 1.00000000
vc 1.00000000 0.00000000 1.00000000 1.00000000
vc 1.00000000 0.00000000 1.00000000 1.00000000
vc 1.00000000 0.00000000 1.00000000 1.00000000
vc 1.00000000 0.00000000 1.00000000 1.00000000
vc 1.00000000 0.00000000 1.00000000 1.00000000
vc 1.00000000 0.00000000 1.00000000 1.00000000
vc 1.00000000 0.00000000 1.00000000 1.00000000
vc 1.00000000 0.00000000 1.00000000 1.00000000
vc 1.00000000 0.00000000 1.00000000 1.00000000
vc 1.00000000 0.00000000 1.00000000 1.00000000
vc 1.00000000 0.00000000 1.00000000 1.00000000
vc 1.00000000 0.00000000 1.00000000 1.00000000
vc 1.00000000 0.00000000 1.00000000 1.00000000
vc 1.00000000 0.00000000 1.00000000 1.00000000
vc 1.00000000 0.00000000 1.00000000 1.00000000
vc 1.00000000 0.00000000 1.00000000 1.00000000
vc 1.00000000 0.00000000 1.00000000 1.00000000
vc 1.00000000 0.00000000 1.00000000 1.00000000
vc 1.00000000 0.00000000 1.00000000 1.00000000
vc 1.00000000 0.00000000 1.00000000 1.00000000
vc 1.00000000 0.00000000 1.00000000 1.00000000
vc 1.00000000 0.00000000 1.00000000 1.00000000
vc 1.00000000 0.00000000 1.00000000 1.00000000
vc 1.00000000 0.00000000 1.00000000 1.00000000
vc 1.00000000 0.00000000 1.00000000 1.00000000
vc 1.00000000 0.00000000 1.00000000 1.00000000
vc 1.00000000 0.00000000 1.00000000 1.00000000
vc 1.00000000 0.00000000 1.00000000 1.00000000
vc 1.00000000 0.00000000 1.00000000 1.00000000
vc 1.00000000 0.00000000 1.00000000 1.00000000
vc 1.00000000 0.00000000 1.00000000 1.00000000
vc 1.00000000 0.00000000 1.00000000 1.00000000
vc 1.00000000 0.00000000 1.00000000 1.00000000
vc 1.00000000 0.00000000 1.00000000 1.00000000
vc 1.00000000 0.00000000 1.00000000 1.00000000
vc 1.00000000 0.00000000 1.00000000 1.00000000
vc 1.00000000 0.00000000 1.00000000 1.00000000
vc 1.00000000 0.00000000 1.00000000 1.00000000
vc 1.00000000 0.00000000 1.00000000 1.00000000
vc 1.00000000 0.00000000 1.00000000 1.00000000
vc 1.00000000 0.00000000 1.00000000 1.00000000
vc 1.00000000 0.00000000 1.00000000 1.00000000
vc 1.00000000 0.00000000 1.00000000 1.00000000
vc 1.00000000 0.00000000 1.00000000 1.00000000
vc 1.00000000 0.00000000 1.00000000 1.00000000
vc 1.00000000 0.00000000 1.00000000 1.00000000
vc 1.00000000 0.00000000 1.00000000 1.00000000
vc 1.00000000 0.00000000 1.00000000 1.00000000
vc 1.00000000 0.00000000 1.00000000 1.00000000
vc 1.00000000 0.00000000 1.00000000 1.00000000
vc 1.00000000 0.00000000 1.00000000 1.00000000
vc 1.00000000 0.00000000 1.00000000 1.00000000
vc 1.00000000 0.00000000 1.00000000 1.00000000
vc 1.00000000 0.00000000 1.00000000 1.00000000
vc 1.00000000 0.00000000 1.00000000 1.00000000
vc 1.00000000 0.00000000 1.00000000 1.00000000
vc 1.00000000 0.00000000 1.00000000 1.00000000
vc 1.00000000 0.00000000 1.00000000 1.00000000
vc 1.00000000 0.00000000 1.00000000 1.00000000
vc 1.00000000 0.00000000 1.00000000 1.00000000
vc 1.00000000 0.00000000 1.00000000 1.00000000
vc 1.00000000 0.00000000 1.00000000 1.00000000
vc 1.00000000 0.00000000 1.00000000 1.00000000
vc 1.00000000 0.00000000 1.00000000 1.00000000
vc 1.00000000 0.00000000 1.00000000 1.00000000
g highway-tunnel-slope_LOD_0
f 1/1/1/1 2/2/2/2 3/3/3/3
f 2/2/2/2 1/1/1/1 4/4/4/4
f 3/3/3/3 5/5/5/5 1/1/1/1
f 5/5/5/5 3/3/3/3 6/6/6/6
f 4/4/4/4 7/7/7/7 2/2/2/2
f 7/7/7/7 4/4/4/4 8/8/8/8
f 8/8/8/8 9/9/9/9 7/7/7/7
f 9/9/9/9 8/8/8/8 10/10/10/10
f 11/11/11/11 12/12/12/12 13/13/13/13
f 12/12/12/12 11/11/11/11 14/14/14/14
f 14/14/14/14 15/15/15/15 12/12/12/12
f 16/16/16/16 17/17/17/17 15/15/15/15
f 17/17/17/17 16/16/16/16 18/18/18/18
f 17/17/17/17 19/19/19/19 20/20/20/20
f 21/21/21/21 20/20/20/20 19/19/19/19
f 20/20/20/20 21/21/21/21 22/22/22/22
f 23/23/23/23 24/24/24/24 25/25/25/25
f 24/24/24/24 23/23/23/23 26/26/26/26
f 27/27/27/27 28/28/28/28 29/29/29/29
f 30/30/30/30 31/31/31/31 32/32/32/32
f 31/31/31/31 30/30/30/30 33/33/33/33
f 34/34/34/34 35/35/35/35 36/36/36/36
f 37/37/37/37 38/38/38/38 39/39/39/39
f 38/38/38/38 37/37/37/37 40/40/40/40
f 41/41/41/41 42/42/42/42 43/43/43/43
f 42/42/42/42 41/41/41/41 44/44/44/44
f 42/42/42/42 45/45/45/45 43/43/43/43
f 45/45/45/45 42/42/42/42 46/46/46/46
f 47/47/47/47 45/45/45/45 46/46/46/46
f 45/45/45/45 47/47/47/47 48/48/48/48
f 49/49/49/49 50/50/50/50 51/51/51/51
f 50/50/50/50 49/49/49/49 52/52/52/52
f 53/53/53/53 52/52/52/52 49/49/49/49
f 52/52/52/52 53/53/53/53 54/54/54/54
f 53/53/53/53 55/55/55/55 54/54/54/54
f 55/55/55/55 53/53/53/53 56/56/56/56
f 57/57/57/57 58/58/58/58 59/59/59/59
f 58/58/58/58 57/57/57/57 60/60/60/60
f 58/58/58/58 61/61/61/61 59/59/59/59
f 61/61/61/61 58/58/58/58 62/62/62/62
f 63/63/63/63 61/61/61/61 62/62/62/62
f 61/61/61/61 63/63/63/63 64/64/64/64
f 65/65/65/65 60/60/60/60 66/66/66/66
f 60/60/60/60 65/65/65/65 67/67/67/67
f 68/68/68/68 69/69/69/69 70/70/70/70
f 69/69/69/69 68/68/68/68 71/71/71/71
f 72/72/72/72 71/71/71/71 68/68/68/68
f 71/71/71/71 72/72/72/72 73/73/73/73
f 72/72/72/72 74/74/74/74 73/73/73/73
f 74/74/74/74 72/72/72/72 75/75/75/75
f 76/76/76/76 77/77/77/77 69/69/69/69
f 77/77/77/77 76/76/76/76 78/78/78/78
f 79/79/79/79 80/80/80/80 81/81/81/81
f 80/80/80/80 79/79/79/79 82/82/82/82
f 83/83/83/83 84/84/84/84 85/85/85/85
f 84/84/84/84 83/83/83/83 86/86/86/86
f 87/87/87/87 88/88/88/88 89/89/89/89
f 88/88/88/88 87/87/87/87 90/90/90/90
f 91/91/91/91 92/92/92/92 93/93/93/93
f 92/92/92/92 91/91/91/91 94/94/94/94
f 95/95/95/95 96/96/96/96 97/97/97/97
f 96/96/96/96 95/95/95/95 98/98/98/98
