# File exported by Unity3D version 5.6.7f1
v 13.90000000 1.11592900 -32.00000000
v 13.79750000 -0.30000140 -32.00000000
v 13.90000000 1.11593000 -0.00000381
v 13.79751000 -0.30000080 0.00000097
v 13.90000000 1.11593000 32.00000000
v 13.79751000 -0.30000040 32.00000000
v 14.49177000 -2.00000200 -32.00000000
v 13.90000000 1.11592900 -32.00000000
v 14.49177000 -2.00000100 -0.00000381
v 13.90000000 1.11592900 0.00000095
v 14.49177000 -2.00000000 32.00000000
v 13.90000000 1.11593000 32.00000000
v 13.06971000 -4.49999900 -32.00000000
v 14.49177000 -2.00000100 -32.00000000
v 13.06971000 -4.49999800 -0.00000572
v 14.49177000 -2.00000100 0.00000095
v 13.06971000 -4.49999700 32.00000000
v 14.49177000 -2.00000000 32.00000000
v 13.06971000 -4.49999800 -31.99999000
v 13.06971000 -4.49999800 0.00000095
v -13.06971000 -4.49999900 -31.99999000
v -13.06971000 -4.49999800 0.00000381
v 13.06971000 -4.49999700 32.00000000
v -13.06971000 -4.49999700 32.00000000
v -13.06971000 -4.49999900 -32.00000000
v -13.06971000 -4.49999800 -0.00000572
v -14.49177000 -2.00000200 -32.00000000
v -14.49177000 -2.00000200 0.00000191
v -13.06971000 -4.49999700 32.00000000
v -14.49177000 -2.00000000 32.00000000
v -14.49177000 -2.00000200 -32.00000000
v -14.49177000 -2.00000100 -0.00000286
v -13.90000000 1.11592900 -32.00000000
v -13.90000000 1.11593000 0.00000191
v -14.49177000 -2.00000000 32.00000000
v -13.90000000 1.11593100 32.00000000
v -13.90000000 1.11592900 -32.00000000
v -13.90000000 1.11593000 -0.00000286
v -13.79751000 -0.30000140 -32.00000000
v -13.79751000 -0.30000080 0.00000192
v -13.90000000 1.11593000 32.00000000
v -13.79751000 -0.30000040 32.00000000
v 0.00000003 -0.30000040 0.00000002
v 13.79752000 -0.29999790 -31.99999000
v -13.79749000 -0.29999790 -31.99999000
v -8.99999800 -0.29999880 0.00000191
v 9.00000200 -0.29999890 0.00000286
v 13.79751000 -0.29999910 -0.00000006
v -13.79750000 -0.29999910 0.00000009
v 8.99999700 -0.30000000 31.99999000
v 13.79751000 -0.30000030 31.99999000
v -0.00000481 -0.30000110 32.00000000
v -9.00000300 -0.30000000 31.99999000
v -13.79751000 -0.30000040 31.99999000
vt 0.18477 1.00000
vt 0.23635 1.00000
vt 0.18477 0.50000
vt 0.23635 0.50000
vt 0.18477 0.00000
vt 0.23635 0.00000
vt 0.07620 1.00000
vt 0.18477 1.00000
vt 0.07620 0.50000
vt 0.18477 0.50000
vt 0.07620 0.00000
vt 0.18477 0.00000
vt 0.00000 1.00000
vt 0.07620 1.00000
vt 0.00000 0.50000
vt 0.07620 0.50000
vt 0.00000 0.00000
vt 0.07620 0.00000
vt 0.82305 1.00000
vt 0.82305 0.50000
vt 1.00000 1.00000
vt 1.00000 0.50000
vt 0.82305 0.00000
vt 1.00000 0.00000
vt 0.75045 1.00000
vt 0.75045 0.50000
vt 0.82305 1.00000
vt 0.82305 0.50000
vt 0.75045 0.00000
vt 0.82305 0.00000
vt 0.63829 1.00000
vt 0.63829 0.50000
vt 0.75045 1.00000
vt 0.75045 0.50000
vt 0.63829 0.00000
vt 0.75045 0.00000
vt 0.58947 1.00000
vt 0.58947 0.50000
vt 0.63829 1.00000
vt 0.63829 0.50000
vt 0.58947 0.00000
vt 0.63829 0.00000
vt 0.41426 0.50000
vt 0.23635 1.00000
vt 0.58947 1.00000
vt 0.53045 0.50000
vt 0.29678 0.50000
vt 0.23635 0.50000
vt 0.58947 0.50000
vt 0.29678 0.00000
vt 0.23635 0.00000
vt 0.41425 0.00000
vt 0.53045 0.00000
vt 0.58947 0.00000
vn -0.99739060 0.07219557 0.00000000
vn -0.99739060 0.07219560 0.00000000
vn -0.99739040 0.07219689 0.00000000
vn -0.99739040 0.07219691 0.00000000
vn -0.99739040 0.07219691 0.00000000
vn -0.99739040 0.07219692 0.00000000
vn 0.98243940 0.18658200 0.00000000
vn 0.98243940 0.18658200 0.00000000
vn 0.98243940 0.18658200 0.00000000
vn 0.98243940 0.18658200 0.00000000
vn 0.98243940 0.18658200 0.00000000
vn 0.98243940 0.18658200 0.00000000
vn 0.86921660 -0.49443140 0.00000000
vn 0.86921660 -0.49443150 0.00000000
vn 0.86921640 -0.49443180 0.00000000
vn 0.86921640 -0.49443170 0.00000000
vn 0.86921670 -0.49443130 0.00000000
vn 0.86921670 -0.49443120 0.00000000
vn 0.00000000 -1.00000000 0.00000000
vn 0.00000000 -1.00000000 0.00000000
vn 0.00000000 -1.00000000 0.00000000
vn 0.00000000 -1.00000000 0.00000000
vn 0.00000000 -1.00000000 0.00000000
vn 0.00000000 -1.00000000 0.00000000
vn -0.86921640 -0.49443180 0.00000000
vn -0.86921640 -0.49443190 0.00000000
vn -0.86921640 -0.49443190 0.00000000
vn -0.86921640 -0.49443190 0.00000000
vn -0.86921640 -0.49443190 0.00000000
vn -0.86921640 -0.49443180 0.00000000
vn -0.98243940 0.18658230 0.00000000
vn -0.98243940 0.18658230 0.00000000
vn -0.98243940 0.18658230 0.00000000
vn -0.98243940 0.18658230 0.00000000
vn -0.98243940 0.18658200 0.00000000
vn -0.98243940 0.18658200 0.00000000
vn 0.99739040 0.07219690 0.00000000
vn 0.99739040 0.07219692 0.00000000
vn 0.99739040 0.07219689 0.00000000
vn 0.99739040 0.07219692 0.00000000
vn 0.99739040 0.07219691 0.00000000
vn 0.99739040 0.07219692 0.00000000
vn 0.00000000 1.00000000 0.00000000
vn 0.00000000 1.00000000 0.00000000
vn 0.00000000 1.00000000 0.00000000
vn 0.00000000 1.00000000 0.00000000
vn 0.00000000 1.00000000 0.00000000
vn 0.00000000 1.00000000 0.00000000
vn 0.00000000 1.00000000 0.00000000
vn 0.00000000 1.00000000 0.00000000
vn 0.00000000 1.00000000 0.00000000
vn 0.00000000 1.00000000 0.00000000
vn 0.00000000 1.00000000 0.00000000
vn 0.00000000 1.00000000 0.00000000
g Plane01n_0
f 1/1/1 2/2/2 3/3/3
f 3/3/3 2/2/2 4/4/4
f 3/3/3 4/4/4 5/5/5
f 6/6/6 5/5/5 4/4/4
f 7/7/7 8/8/8 9/9/9
f 9/9/9 8/8/8 10/10/10
f 9/9/9 10/10/10 11/11/11
f 12/12/12 11/11/11 10/10/10
f 13/13/13 14/14/14 15/15/15
f 15/15/15 14/14/14 16/16/16
f 15/15/15 16/16/16 17/17/17
f 18/18/18 17/17/17 16/16/16
f 19/19/19 20/20/20 21/21/21
f 20/20/20 22/22/22 21/21/21
f 20/20/20 23/23/23 22/22/22
f 24/24/24 22/22/22 23/23/23
f 25/25/25 26/26/26 27/27/27
f 26/26/26 28/28/28 27/27/27
f 26/26/26 29/29/29 28/28/28
f 30/30/30 28/28/28 29/29/29
f 31/31/31 32/32/32 33/33/33
f 32/32/32 34/34/34 33/33/33
f 32/32/32 35/35/35 34/34/34
f 36/36/36 34/34/34 35/35/35
f 37/37/37 38/38/38 39/39/39
f 38/38/38 40/40/40 39/39/39
f 38/38/38 41/41/41 40/40/40
f 42/42/42 40/40/40 41/41/41
f 43/43/43 44/44/44 45/45/45
f 45/45/45 46/46/46 43/43/43
f 43/43/43 47/47/47 44/44/44
f 44/44/44 47/47/47 48/48/48
f 49/49/49 46/46/46 45/45/45
f 47/47/47 50/50/50 48/48/48
f 48/48/48 50/50/50 51/51/51
f 52/52/52 50/50/50 47/47/47
f 52/52/52 47/47/47 43/43/43
f 43/43/43 53/53/53 52/52/52
f 46/46/46 53/53/53 43/43/43
f 54/54/54 53/53/53 46/46/46
f 54/54/54 46/46/46 49/49/49
