# File exported by Unity3D version 5.6.7f1
v 13.70000000 -0.00000315 16.00000000
v -13.70000000 -0.00001140 -0.00000731
v -13.70000000 -0.00001084 15.99999000
v 13.70000000 -0.00000372 -0.00000243
v 13.70000000 -0.00000268 31.99999000
v -13.70000000 -0.00001036 31.99999000
v -13.70000000 -0.00001191 -16.00001000
v 13.70000000 -0.00000423 -16.00000000
v -13.70000000 -0.00001245 -32.00001000
v 13.70000000 -0.00000476 -32.00000000
v 16.00000000 0.99999820 15.99999000
v 13.70000000 -0.00000372 -0.00000243
v 13.70000000 -0.00000315 16.00000000
v 16.00000000 0.99999770 -0.00000243
v 16.00000000 0.99999860 31.99999000
v 13.70000000 -0.00000268 31.99999000
v 13.70000000 -0.00000423 -16.00000000
v 16.00000000 0.99999730 -16.00000000
v 13.70000000 -0.00000476 -32.00000000
v 16.00000000 0.99999650 -32.00000000
v 16.00000000 -1.00000100 15.99999000
v 16.00000000 0.99999730 -0.00000241
v 16.00000000 0.99999770 16.00000000
v 16.00000000 -1.00000200 -0.00000229
v 16.00000000 -1.00000000 31.99999000
v 16.00000000 0.99999860 31.99999000
v 16.00000000 0.99999620 -16.00000000
v 16.00000000 -1.00000300 -16.00000000
v 16.00000000 0.99999580 -32.00000000
v 16.00000000 -1.00000400 -32.00000000
v -16.00000000 -1.00001000 -0.00000349
v 16.00000000 -1.00000100 16.00000000
v -16.00000000 -1.00000900 16.00000000
v 16.00000000 -1.00000200 0.00000140
v 16.00000000 -1.00000000 31.99999000
v -16.00000000 -1.00000800 31.99999000
v -16.00000000 -1.00001100 -16.00000000
v 16.00000000 -1.00000300 -16.00000000
v -16.00000000 -1.00001200 -32.00000000
v 16.00000000 -1.00000400 -31.99999000
v -16.00000000 0.99998890 -0.00000729
v -16.00000000 -1.00000900 15.99999000
v -16.00000000 0.99998940 15.99999000
v -16.00000000 -1.00000800 31.99999000
v -16.00000000 0.99999020 31.99999000
v -16.00000000 -1.00000900 15.99999000
v -16.00000000 0.99998890 -0.00000729
v -16.00000000 -1.00000900 -0.00000717
v -16.00000000 0.99998780 -16.00001000
v -16.00000000 -1.00001000 -16.00000000
v -16.00000000 0.99998730 -32.00001000
v -16.00000000 -1.00001100 -32.00000000
v -13.69971000 -0.00001081 -0.00000731
v -16.00000000 0.99998960 15.99999000
v -13.69971000 -0.00001024 15.99999000
v -16.00000000 0.99998920 -0.00000731
v -16.00000000 0.99999000 31.99999000
v -13.69971000 -0.00000977 31.99999000
v -13.69971000 -0.00001132 -16.00001000
v -16.00000000 0.99998870 -16.00000000
v -13.69971000 -0.00001185 -32.00001000
v -16.00000000 0.99998790 -32.00001000
vt 0.14375 0.25000
vt 0.85625 0.50000
vt 0.85625 0.25000
vt 0.14375 0.50000
vt 0.14375 0.00000
vt 0.85625 0.00000
vt 0.85625 0.75000
vt 0.14375 0.75000
vt 0.85625 1.00000
vt 0.14375 1.00000
vt 0.00000 0.25000
vt 0.14375 0.50000
vt 0.14375 0.25000
vt 0.00000 0.50000
vt 0.00000 0.00000
vt 0.14375 0.00000
vt 0.14375 0.75000
vt 0.00000 0.75000
vt 0.14375 1.00000
vt 0.00000 1.00000
vt 0.00000 0.25000
vt 0.00000 0.50000
vt 0.00000 0.25000
vt 0.00000 0.50000
vt 0.00000 0.00000
vt 0.00000 0.00000
vt 0.00000 0.75000
vt 0.00000 0.75000
vt 0.00000 1.00000
vt 0.00000 1.00000
vt 1.00000 0.50000
vt 0.00000 0.25000
vt 1.00000 0.25000
vt 0.00000 0.50000
vt 0.00000 0.00000
vt 1.00000 0.00000
vt 1.00000 0.75000
vt 0.00000 0.75000
vt 1.00000 1.00000
vt 0.00000 1.00000
vt 1.00000 0.50000
vt 1.00000 0.25000
vt 1.00000 0.25000
vt 1.00000 0.00000
vt 1.00000 0.00000
vt 1.00000 0.25000
vt 1.00000 0.50000
vt 1.00000 0.50000
vt 1.00000 0.75000
vt 1.00000 0.75000
vt 1.00000 1.00000
vt 1.00000 1.00000
vt 0.85623 0.50000
vt 1.00000 0.25000
vt 0.85623 0.25000
vt 1.00000 0.50000
vt 1.00000 0.00000
vt 0.85623 0.00000
vt 0.85623 0.75000
vt 1.00000 0.75000
vt 0.85623 1.00000
vt 1.00000 1.00000
vn 0.00000000 1.00000000 0.00000000
vn 0.00000000 1.00000000 0.00000000
vn 0.00000000 1.00000000 0.00000000
vn 0.00000000 1.00000000 0.00000000
vn 0.00000000 1.00000000 0.00000000
vn 0.00000000 1.00000000 0.00000000
vn 0.00000000 1.00000000 0.00000000
vn 0.00000000 1.00000000 0.00000000
vn 0.00000000 1.00000000 0.00000000
vn 0.00000000 1.00000000 0.00000000
vn -0.39872680 0.91706980 0.00000000
vn -0.39872670 0.91706980 0.00000000
vn -0.39872680 0.91706980 0.00000000
vn -0.39872680 0.91706980 0.00000000
vn -0.39872670 0.91706980 0.00000000
vn -0.39872670 0.91706980 0.00000000
vn -0.39872680 0.91706970 0.00000000
vn -0.39872680 0.91706970 0.00000000
vn -0.39872680 0.91706980 0.00000000
vn -0.39872680 0.91706980 0.00000000
vn 1.00000000 0.00000000 0.00000000
vn 1.00000000 0.00000000 0.00000000
vn 1.00000000 0.00000000 0.00000000
vn 1.00000000 0.00000000 0.00000000
vn 1.00000000 0.00000000 0.00000000
vn 1.00000000 0.00000000 0.00000000
vn 1.00000000 0.00000000 0.00000000
vn 1.00000000 0.00000000 0.00000000
vn 1.00000000 0.00000000 0.00000000
vn 1.00000000 0.00000000 0.00000000
vn 0.00000000 -1.00000000 0.00000000
vn 0.00000000 -1.00000000 0.00000000
vn 0.00000000 -1.00000000 0.00000000
vn 0.00000000 -1.00000000 0.00000000
vn 0.00000000 -1.00000000 0.00000000
vn 0.00000000 -1.00000000 0.00000000
vn 0.00000000 -1.00000000 0.00000000
vn 0.00000000 -1.00000000 0.00000000
vn 0.00000000 -1.00000000 0.00000000
vn 0.00000000 -1.00000000 0.00000000
vn -1.00000000 -0.00000046 0.00000000
vn -1.00000000 0.00000000 0.00000000
vn -1.00000000 0.00000000 0.00000000
vn -1.00000000 0.00000000 0.00000000
vn -1.00000000 0.00000000 0.00000000
vn -1.00000000 0.00000000 0.00000000
vn -1.00000000 -0.00000046 0.00000000
vn -1.00000000 -0.00000048 0.00000000
vn -1.00000000 -0.00000048 0.00000000
vn -1.00000000 -0.00000048 0.00000000
vn -1.00000000 -0.00000048 0.00000000
vn -1.00000000 -0.00000048 0.00000000
vn 0.39868340 0.91708860 0.00000000
vn 0.39868350 0.91708860 0.00000000
vn 0.39868350 0.91708860 0.00000000
vn 0.39868340 0.91708860 0.00000000
vn 0.39868350 0.91708860 0.00000000
vn 0.39868350 0.91708860 0.00000000
vn 0.39868350 0.91708860 0.00000000
vn 0.39868350 0.91708860 0.00000000
vn 0.39868340 0.91708860 0.00000000
vn 0.39868340 0.91708860 0.00000000
g large-tunnel-segment_LOD_0
f 1/1/1 2/2/2 3/3/3
f 2/2/2 1/1/1 4/4/4
f 3/3/3 5/5/5 1/1/1
f 5/5/5 3/3/3 6/6/6
f 4/4/4 7/7/7 2/2/2
f 7/7/7 4/4/4 8/8/8
f 8/8/8 9/9/9 7/7/7
f 9/9/9 8/8/8 10/10/10
f 11/11/11 12/12/12 13/13/13
f 12/12/12 11/11/11 14/14/14
f 13/13/13 15/15/15 11/11/11
f 15/15/15 13/13/13 16/16/16
f 14/14/14 17/17/17 12/12/12
f 17/17/17 14/14/14 18/18/18
f 18/18/18 19/19/19 17/17/17
f 19/19/19 18/18/18 20/20/20
f 21/21/21 22/22/22 23/23/23
f 22/22/22 21/21/21 24/24/24
f 23/23/23 25/25/25 21/21/21
f 25/25/25 23/23/23 26/26/26
f 24/24/24 27/27/27 22/22/22
f 27/27/27 24/24/24 28/28/28
f 28/28/28 29/29/29 27/27/27
f 29/29/29 28/28/28 30/30/30
f 31/31/31 32/32/32 33/33/33
f 32/32/32 31/31/31 34/34/34
f 35/35/35 33/33/33 32/32/32
f 33/33/33 35/35/35 36/36/36
f 37/37/37 34/34/34 31/31/31
f 34/34/34 37/37/37 38/38/38
f 39/39/39 38/38/38 37/37/37
f 38/38/38 39/39/39 40/40/40
f 41/41/41 42/42/42 43/43/43
f 44/44/44 43/43/43 42/42/42
f 43/43/43 44/44/44 45/45/45
f 46/46/46 47/47/47 48/48/48
f 49/49/49 48/48/48 47/47/47
f 48/48/48 49/49/49 50/50/50
f 51/51/51 50/50/50 49/49/49
f 50/50/50 51/51/51 52/52/52
f 53/53/53 54/54/54 55/55/55
f 54/54/54 53/53/53 56/56/56
f 57/57/57 55/55/55 54/54/54
f 55/55/55 57/57/57 58/58/58
f 59/59/59 56/56/56 53/53/53
f 56/56/56 59/59/59 60/60/60
f 61/61/61 60/60/60 59/59/59
f 60/60/60 61/61/61 62/62/62
