# File exported by Unity3D version 5.6.7f1
v 6.00000000 -0.00000103 0.00000003
v -6.00000000 -0.00000100 0.00000003
v 6.00000000 -0.00000048 16.00000000
v -6.00000000 -0.00000151 -16.00000000
v -6.00000000 -0.00000048 16.00000000
v 6.00000000 0.00000000 32.00000000
v -6.00000000 0.00000000 32.00000000
v 6.00000000 -0.00000151 -16.00000000
v -6.00000000 -0.00000206 -32.00000000
v 6.00000000 -0.00000209 -32.00000000
v 5.69999900 1.49999900 0.00000001
v 5.23449600 -0.00000104 0.00000003
v 5.69999900 1.49999900 15.99999000
v 5.23449600 -0.00000152 -16.00000000
v 5.23449600 -0.00000048 16.00000000
v 5.69999900 1.50000000 32.00000000
v 5.23449600 0.00000000 32.00000000
v 5.69999900 1.49999800 -16.00000000
v 5.23449600 -0.00000209 -32.00000000
v 5.69999900 1.49999700 -32.00000000
v 6.49177200 -2.00000200 0.00000013
v 5.69999900 1.49999800 0.00000003
v 6.49177200 -2.00000100 15.99999000
v 5.69999900 1.49999700 -16.00000000
v 5.69999900 1.49999900 16.00000000
v 6.49177100 -2.00000000 32.00000000
v 5.69999900 1.50000000 32.00000000
v 6.49177200 -2.00000200 -16.00000000
v 5.69999900 1.49999700 -32.00000000
v 6.49177200 -2.00000300 -32.00000000
v 5.06971200 -3.50000000 0.00000015
v 6.49177100 -2.00000100 0.00000009
v 5.06971200 -3.49999900 15.99999000
v 6.49177100 -2.00000300 -16.00000000
v 6.49177100 -2.00000100 16.00000000
v 5.06971200 -3.49999800 32.00000000
v 6.49177100 -2.00000000 32.00000000
v 5.06971200 -3.50000000 -16.00000000
v 6.49177100 -2.00000300 -32.00000000
v 5.06971200 -3.50000100 -32.00000000
v 5.06971200 -3.50000000 0.00000381
v 5.06971200 -3.49999900 16.00000000
v -5.06970900 -3.50000100 0.00000381
v -5.06970900 -3.50000100 -16.00000000
v -5.06970900 -3.49999900 16.00000000
v 5.06971200 -3.49999800 32.00000000
v -5.06970900 -3.49999800 32.00000000
v 5.06971200 -3.50000000 -16.00000000
v -5.06970900 -3.50000300 -31.99999000
v 5.06971200 -3.50000100 -31.99999000
v -5.06970900 -3.50000100 0.00000015
v -5.06970900 -3.50000000 15.99999000
v -6.49177200 -2.00000200 0.00000009
v -6.49177000 -2.00000300 -16.00000000
v -6.49177000 -2.00000100 16.00000000
v -5.06970900 -3.49999900 32.00000000
v -6.49177000 -2.00000000 32.00000000
v -5.06970900 -3.50000200 -16.00000000
v -6.49177200 -2.00000300 -32.00000000
v -5.06970900 -3.50000200 -32.00000000
v -6.49177200 -2.00000100 0.00000013
v -6.49177200 -2.00000000 15.99999000
v -5.70000000 1.49999800 0.00000003
v -5.70000000 1.49999700 -16.00000000
v -5.70000000 1.49999900 16.00000000
v -6.49177200 -2.00000000 32.00000000
v -5.70000000 1.50000000 32.00000000
v -6.49177200 -2.00000200 -16.00000000
v -5.70000000 1.49999700 -32.00000000
v -6.49177200 -2.00000200 -32.00000000
v -5.70000000 1.49999900 0.00000001
v -5.70000000 1.49999900 15.99999000
v -5.23420000 -0.00000042 0.00000003
v -5.23420000 -0.00000095 -16.00000000
v -5.23420000 0.00000012 16.00000000
v -5.70000000 1.50000000 32.00000000
v -5.23420000 0.00000063 32.00000000
v -5.70000000 1.49999800 -16.00000000
v -5.23420000 -0.00000146 -32.00000000
v -5.70000000 1.49999700 -32.00000000
vt 0.23635 0.50000
vt 0.58947 0.50000
vt 0.23635 0.25000
vt 0.58947 0.75000
vt 0.58947 0.25000
vt 0.23635 0.00000
vt 0.58947 0.00000
vt 0.23635 0.75000
vt 0.58947 1.00000
vt 0.23635 1.00000
vt 0.18477 0.50000
vt 0.23635 0.50000
vt 0.18477 0.25000
vt 0.23635 0.75000
vt 0.23635 0.25000
vt 0.18477 0.00000
vt 0.23635 0.00000
vt 0.18477 0.75000
vt 0.23635 1.00000
vt 0.18477 1.00000
vt 0.07620 0.50000
vt 0.18477 0.50000
vt 0.07620 0.25000
vt 0.18477 0.75000
vt 0.18477 0.25000
vt 0.07620 0.00000
vt 0.18477 0.00000
vt 0.07620 0.75000
vt 0.18477 1.00000
vt 0.07620 1.00000
vt 0.00000 0.50000
vt 0.07620 0.50000
vt 0.00000 0.25000
vt 0.07620 0.75000
vt 0.07620 0.25000
vt 0.00000 0.00000
vt 0.07620 0.00000
vt 0.00000 0.75000
vt 0.07620 1.00000
vt 0.00000 1.00000
vt 0.82305 0.50000
vt 0.82305 0.25000
vt 1.00000 0.50000
vt 1.00000 0.75000
vt 1.00000 0.25000
vt 0.82305 0.00000
vt 1.00000 0.00000
vt 0.82305 0.75000
vt 1.00000 1.00000
vt 0.82305 1.00000
vt 0.75045 0.50000
vt 0.75045 0.25000
vt 0.82305 0.50000
vt 0.82305 0.75000
vt 0.82305 0.25000
vt 0.75045 0.00000
vt 0.82305 0.00000
vt 0.75045 0.75000
vt 0.82305 1.00000
vt 0.75045 1.00000
vt 0.63829 0.50000
vt 0.63829 0.25000
vt 0.75045 0.50000
vt 0.75045 0.75000
vt 0.75045 0.25000
vt 0.63829 0.00000
vt 0.75045 0.00000
vt 0.63829 0.75000
vt 0.75045 1.00000
vt 0.63829 1.00000
vt 0.58947 0.50000
vt 0.58947 0.25000
vt 0.63829 0.50000
vt 0.63829 0.75000
vt 0.63829 0.25000
vt 0.58947 0.00000
vt 0.63829 0.00000
vt 0.58947 0.75000
vt 0.63829 1.00000
vt 0.58947 1.00000
vn 0.00000000 1.00000000 0.00000000
vn 0.00000000 1.00000000 0.00000000
vn 0.00000000 1.00000000 0.00000000
vn 0.00000000 1.00000000 0.00000000
vn 0.00000000 1.00000000 0.00000000
vn 0.00000000 1.00000000 0.00000000
vn 0.00000000 1.00000000 0.00000000
vn 0.00000000 1.00000000 0.00000000
vn 0.00000000 1.00000000 0.00000000
vn 0.00000000 1.00000000 0.00000000
vn -0.95506670 0.29639080 0.00000000
vn -0.95506670 0.29639080 0.00000000
vn -0.95506670 0.29639080 0.00000000
vn -0.95506670 0.29639080 0.00000000
vn -0.95506670 0.29639080 0.00000000
vn -0.95506670 0.29639080 0.00000000
vn -0.95506670 0.29639080 0.00000000
vn -0.95506670 0.29639080 0.00000000
vn -0.95506670 0.29639090 0.00000000
vn -0.95506670 0.29639090 0.00000000
vn 0.97535410 0.22064550 0.00000000
vn 0.97535410 0.22064550 0.00000000
vn 0.97535410 0.22064550 0.00000000
vn 0.97535410 0.22064550 0.00000000
vn 0.97535410 0.22064550 0.00000000
vn 0.97535410 0.22064530 0.00000000
vn 0.97535410 0.22064530 0.00000000
vn 0.97535410 0.22064550 0.00000000
vn 0.97535410 0.22064550 0.00000000
vn 0.97535410 0.22064550 0.00000000
vn 0.72570900 -0.68800180 0.00000000
vn 0.72570900 -0.68800180 0.00000000
vn 0.72570890 -0.68800190 0.00000000
vn 0.72570900 -0.68800180 0.00000000
vn 0.72570890 -0.68800190 0.00000000
vn 0.72570900 -0.68800180 0.00000000
vn 0.72570900 -0.68800180 0.00000000
vn 0.72570890 -0.68800190 0.00000000
vn 0.72570900 -0.68800180 0.00000000
vn 0.72570900 -0.68800180 0.00000000
vn 0.00000013 -1.00000000 0.00000000
vn 0.00000000 -1.00000000 0.00000000
vn 0.00000010 -1.00000000 0.00000000
vn 0.00000016 -1.00000000 0.00000000
vn 0.00000000 -1.00000000 0.00000000
vn 0.00000000 -1.00000000 0.00000000
vn 0.00000000 -1.00000000 0.00000000
vn 0.00000016 -1.00000000 0.00000000
vn 0.00000015 -1.00000000 0.00000000
vn 0.00000014 -1.00000000 0.00000010
vn -0.72570840 -0.68800250 0.00000000
vn -0.72570900 -0.68800180 0.00000000
vn -0.72570840 -0.68800230 0.00000000
vn -0.72570900 -0.68800180 0.00000000
vn -0.72570890 -0.68800190 0.00000000
vn -0.72570900 -0.68800180 0.00000000
vn -0.72570900 -0.68800180 0.00000000
vn -0.72570900 -0.68800180 0.00000000
vn -0.72570840 -0.68800250 0.00000000
vn -0.72570840 -0.68800250 0.00000000
vn -0.97535420 0.22064510 0.00000000
vn -0.97535420 0.22064510 0.00000000
vn -0.97535420 0.22064510 0.00000000
vn -0.97535420 0.22064510 0.00000000
vn -0.97535420 0.22064510 0.00000000
vn -0.97535420 0.22064510 0.00000000
vn -0.97535420 0.22064510 0.00000000
vn -0.97535420 0.22064510 0.00000000
vn -0.97535420 0.22064510 0.00000000
vn -0.97535420 0.22064510 0.00000000
vn 0.95501300 0.29656380 0.00000000
vn 0.95501300 0.29656380 0.00000000
vn 0.95501310 0.29656370 0.00000000
vn 0.95501310 0.29656370 0.00000000
vn 0.95501300 0.29656380 0.00000000
vn 0.95501300 0.29656380 0.00000000
vn 0.95501300 0.29656380 0.00000000
vn 0.95501310 0.29656370 0.00000000
vn 0.95501300 0.29656380 0.00000000
vn 0.95501300 0.29656380 0.00000000
g Plane01_0
f 1/1/1 2/2/2 3/3/3
f 2/2/2 1/1/1 4/4/4
f 3/3/3 2/2/2 5/5/5
f 3/3/3 5/5/5 6/6/6
f 7/7/7 6/6/6 5/5/5
f 8/8/8 4/4/4 1/1/1
f 8/8/8 9/9/9 4/4/4
f 10/10/10 9/9/9 8/8/8
f 11/11/11 12/12/12 13/13/13
f 12/12/12 11/11/11 14/14/14
f 13/13/13 12/12/12 15/15/15
f 13/13/13 15/15/15 16/16/16
f 17/17/17 16/16/16 15/15/15
f 18/18/18 14/14/14 11/11/11
f 18/18/18 19/19/19 14/14/14
f 20/20/20 19/19/19 18/18/18
f 21/21/21 22/22/22 23/23/23
f 22/22/22 21/21/21 24/24/24
f 23/23/23 22/22/22 25/25/25
f 23/23/23 25/25/25 26/26/26
f 27/27/27 26/26/26 25/25/25
f 28/28/28 24/24/24 21/21/21
f 28/28/28 29/29/29 24/24/24
f 30/30/30 29/29/29 28/28/28
f 31/31/31 32/32/32 33/33/33
f 32/32/32 31/31/31 34/34/34
f 33/33/33 32/32/32 35/35/35
f 33/33/33 35/35/35 36/36/36
f 37/37/37 36/36/36 35/35/35
f 38/38/38 34/34/34 31/31/31
f 38/38/38 39/39/39 34/34/34
f 40/40/40 39/39/39 38/38/38
f 41/41/41 42/42/42 43/43/43
f 43/43/43 44/44/44 41/41/41
f 42/42/42 45/45/45 43/43/43
f 42/42/42 46/46/46 45/45/45
f 47/47/47 45/45/45 46/46/46
f 48/48/48 41/41/41 44/44/44
f 48/48/48 44/44/44 49/49/49
f 50/50/50 48/48/48 49/49/49
f 51/51/51 52/52/52 53/53/53
f 53/53/53 54/54/54 51/51/51
f 52/52/52 55/55/55 53/53/53
f 52/52/52 56/56/56 55/55/55
f 57/57/57 55/55/55 56/56/56
f 58/58/58 51/51/51 54/54/54
f 58/58/58 54/54/54 59/59/59
f 60/60/60 58/58/58 59/59/59
f 61/61/61 62/62/62 63/63/63
f 63/63/63 64/64/64 61/61/61
f 62/62/62 65/65/65 63/63/63
f 62/62/62 66/66/66 65/65/65
f 67/67/67 65/65/65 66/66/66
f 68/68/68 61/61/61 64/64/64
f 68/68/68 64/64/64 69/69/69
f 70/70/70 68/68/68 69/69/69
f 71/71/71 72/72/72 73/73/73
f 73/73/73 74/74/74 71/71/71
f 72/72/72 75/75/75 73/73/73
f 72/72/72 76/76/76 75/75/75
f 77/77/77 75/75/75 76/76/76
f 78/78/78 71/71/71 74/74/74
f 78/78/78 74/74/74 79/79/79
f 80/80/80 78/78/78 79/79/79
