# File exported by Unity3D version 5.6.7f1
v 3.70000200 -0.00000435 31.99999000
v 0.00007343 -0.00000139 0.00000001
v 0.00007343 -0.00000034 32.00000000
v 3.70000200 -0.00000540 -0.00000975
v 3.70000200 -0.00000644 -32.00000000
v -3.69985300 -0.00000365 31.99999000
v -3.69985300 -0.00000470 -0.00000487
v -3.69985300 -0.00000574 -32.00000000
v 5.99999900 0.99999680 31.99999000
v 3.70000200 -0.00000540 -0.00000975
v 3.70000200 -0.00000435 31.99999000
v 5.99999900 0.99999560 -0.00000974
v 5.99999900 0.99999440 -32.00000000
v 3.70000200 -0.00000644 -32.00000000
v 5.99999900 -1.00000200 31.99999000
v 5.99999900 0.99999560 -0.00000974
v 5.99999900 0.99999680 31.99999000
v 5.99999900 -1.00000400 -0.00000777
v 5.99999900 0.99999440 -32.00000000
v 5.99999900 -1.00000600 -32.00000000
v 0.00000000 -1.00000000 0.00000199
v 5.99999900 -1.00000200 31.99999000
v 0.00000000 -0.99999820 32.00000000
v 5.99999900 -1.00000400 -0.00000777
v 5.99999900 -1.00000600 -32.00000000
v -5.99999900 -1.00000300 -0.00000289
v -5.99999900 -1.00000200 31.99999000
v -5.99999900 -1.00000500 -32.00000000
v -5.99999900 0.99999540 -0.00000486
v -5.99999900 -1.00000200 31.99999000
v -5.99999900 0.99999660 31.99999000
v -5.99999900 -1.00000300 -0.00000289
v -5.99999900 0.99999390 -32.00000000
v -5.99999900 -1.00000500 -32.00000000
v -3.69985300 -0.00000470 -0.00000487
v -5.99999900 0.99999660 31.99999000
v -3.69985300 -0.00000365 31.99999000
v -5.99999900 0.99999540 -0.00000486
v -3.69985300 -0.00000574 -32.00000000
v -5.99999900 0.99999390 -32.00000000
vt 0.07187 0.00000
vt 0.50000 0.50000
vt 0.50000 0.00000
vt 0.07187 0.50000
vt 0.07187 1.00000
vt 0.92812 0.00000
vt 0.92812 0.50000
vt 0.92812 1.00000
vt 0.00000 0.00000
vt 0.07187 0.50000
vt 0.07187 0.00000
vt 0.00000 0.50000
vt 0.00000 1.00000
vt 0.07187 1.00000
vt 0.00000 0.00000
vt 0.00000 0.50000
vt 0.00000 0.00000
vt 0.00000 0.50000
vt 0.00000 1.00000
vt 0.00000 1.00000
vt 0.50000 0.50000
vt 0.00000 0.00000
vt 0.50000 0.00000
vt 0.00000 0.50000
vt 0.00000 1.00000
vt 1.00000 0.50000
vt 1.00000 0.00000
vt 1.00000 1.00000
vt 1.00000 0.50000
vt 1.00000 0.00000
vt 1.00000 0.00000
vt 1.00000 0.50000
vt 1.00000 1.00000
vt 1.00000 1.00000
vt 0.92812 0.50000
vt 1.00000 0.00000
vt 0.92812 0.00000
vt 1.00000 0.50000
vt 0.92812 1.00000
vt 1.00000 1.00000
vn 0.00000108 1.00000000 0.00000000
vn 0.00000108 1.00000000 0.00000000
vn 0.00000108 1.00000000 0.00000000
vn 0.00000108 1.00000000 0.00000000
vn 0.00000108 1.00000000 0.00000000
vn -0.00000090 1.00000000 0.00000000
vn -0.00000090 1.00000000 0.00000000
vn -0.00000090 1.00000000 0.00000000
vn -0.39872690 0.91706970 0.00000000
vn -0.39872690 0.91706970 0.00000000
vn -0.39872690 0.91706970 0.00000000
vn -0.39872690 0.91706970 0.00000000
vn -0.39872680 0.91706970 0.00000000
vn -0.39872680 0.91706970 0.00000000
vn 1.00000000 0.00000000 0.00000000
vn 1.00000000 0.00000000 0.00000000
vn 1.00000000 0.00000000 0.00000000
vn 1.00000000 0.00000000 0.00000000
vn 1.00000000 0.00000000 0.00000000
vn 1.00000000 0.00000000 0.00000000
vn -0.00000066 -1.00000000 0.00000000
vn -0.00000066 -1.00000000 0.00000000
vn -0.00000066 -1.00000000 0.00000000
vn -0.00000064 -1.00000000 0.00000000
vn -0.00000064 -1.00000000 0.00000000
vn 0.00000056 -1.00000000 0.00000000
vn 0.00000056 -1.00000000 0.00000000
vn 0.00000058 -1.00000000 0.00000000
vn -1.00000000 0.00000000 0.00000000
vn -1.00000000 0.00000000 0.00000000
vn -1.00000000 0.00000000 0.00000000
vn -1.00000000 0.00000000 0.00000000
vn -1.00000000 0.00000000 0.00000000
vn -1.00000000 0.00000000 0.00000000
vn 0.39870490 0.91707930 0.00000000
vn 0.39870490 0.91707920 0.00000000
vn 0.39870490 0.91707930 0.00000000
vn 0.39870470 0.91707930 0.00000000
vn 0.39870470 0.91707930 0.00000000
vn 0.39870460 0.91707940 0.00000000
g highwayramp-tunnel-node_LOD_0
f 1/1/1 2/2/2 3/3/3
f 2/2/2 1/1/1 4/4/4
f 4/4/4 5/5/5 2/2/2
f 2/2/2 6/6/6 3/3/3
f 6/6/6 2/2/2 7/7/7
f 2/2/2 8/8/8 7/7/7
f 8/8/8 2/2/2 5/5/5
f 9/9/9 10/10/10 11/11/11
f 10/10/10 9/9/9 12/12/12
f 13/13/13 10/10/10 12/12/12
f 10/10/10 13/13/13 14/14/14
f 15/15/15 16/16/16 17/17/17
f 16/16/16 15/15/15 18/18/18
f 18/18/18 19/19/19 16/16/16
f 19/19/19 18/18/18 20/20/20
f 21/21/21 22/22/22 23/23/23
f 22/22/22 21/21/21 24/24/24
f 25/25/25 24/24/24 21/21/21
f 23/23/23 26/26/26 21/21/21
f 26/26/26 23/23/23 27/27/27
f 28/28/28 21/21/21 26/26/26
f 21/21/21 28/28/28 25/25/25
f 29/29/29 30/30/30 31/31/31
f 30/30/30 29/29/29 32/32/32
f 33/33/33 32/32/32 29/29/29
f 32/32/32 33/33/33 34/34/34
f 35/35/35 36/36/36 37/37/37
f 36/36/36 35/35/35 38/38/38
f 39/39/39 38/38/38 35/35/35
f 38/38/38 39/39/39 40/40/40
