# File exported by Unity3D version 5.6.7f1
v 0.00000000 0.00000101 0.00000000
v 6.00001100 0.00000130 -31.99999000
v -5.99998800 0.00000237 -31.99999000
v -3.99999200 0.00000196 0.00000559
v 4.00000800 0.00000058 0.00000156
v 6.00000500 0.00000067 -0.00000005
v -5.99999400 0.00000175 0.00000529
v 4.00000300 -0.00000049 32.00000000
v 6.00000000 -0.00000052 32.00000000
v -0.00000459 0.00000030 32.00000000
v -3.99999700 0.00000070 32.00000000
v -5.99999900 0.00000052 32.00000000
vt 0.50000 0.50000
vt 0.00000 1.00000
vt 1.00000 1.00000
vt 0.83333 0.50000
vt 0.16667 0.50000
vt 0.00000 0.50000
vt 1.00000 0.50000
vt 0.16667 0.00000
vt 0.00000 0.00000
vt 0.50000 0.00000
vt 0.83333 0.00000
vt 1.00000 0.00000
vn 0.00000016 1.00000000 0.00000000
vn 0.00000000 1.00000000 0.00000000
vn 0.00000000 1.00000000 0.00000000
vn 0.00000000 1.00000000 0.00000000
vn 0.00000000 1.00000000 0.00000000
vn 0.00000000 1.00000000 0.00000000
vn -0.00000010 1.00000000 0.00000000
vn 0.00000011 1.00000000 0.00000000
vn 0.00000000 1.00000000 0.00000000
vn 0.00000015 1.00000000 0.00000000
vn 0.00000000 1.00000000 0.00000000
vn 0.00000000 1.00000000 0.00000000
g Plane01_0
f 1/1/1 2/2/2 3/3/3
f 3/3/3 4/4/4 1/1/1
f 1/1/1 5/5/5 2/2/2
f 2/2/2 5/5/5 6/6/6
f 7/7/7 4/4/4 3/3/3
f 5/5/5 8/8/8 6/6/6
f 6/6/6 8/8/8 9/9/9
f 10/10/10 8/8/8 5/5/5
f 10/10/10 5/5/5 1/1/1
f 1/1/1 11/11/11 10/10/10
f 4/4/4 11/11/11 1/1/1
f 12/12/12 11/11/11 4/4/4
f 12/12/12 4/4/4 7/7/7
